<svg width="100" height="100" viewBox="0 0 100 100" fill="none" xmlns="http://www.w3.org/2000/svg">
<g xmlns="http://www.w3.org/2000/svg" id="_x30_6_1_">
		<g id="_x30_6">
			<path style="fill:#FFB8A1;" d="M393.908,401.811c0,0,0,4.813-7.596,4.967c-3.585,0.073-7.447-4.647-7.447-4.647     s-29.25,8.599-30.875,20.474h42.443c0,0,33.523,1.422,34.19,0.75c0.666-0.672-0.508-3.625-0.633-4.125s-1.99-4.283-7.625-6.625     C410.73,410.261,393.908,401.811,393.908,401.811z"/>
			<path style="fill:#FFFFFF;" d="M340.115,358.562c0,0-8.033,9.049-0.35,18.774c7.684,9.726,17.35,3.394,17.35,3.394     s10.43,14.081,30.799,13.54c0,0,14.761,1.125,30.315-12.708c4.221,0.5,16.387,2.302,19.887-7.099     c3.5-9.401,1.883-18.109-10.431-18.309c1.877-24.74-9.241-39.294-33.776-40.691c-26.333-1.5-48.776,16.334-45.126,45.432     C348.58,353.229,345.131,355.527,340.115,358.562z"/>
			<path style="fill:#D4D4D4;" d="M348.282,365.062c0,0-4.499-3.454-7.306,1.847c-1.027,1.82-0.027,10.057,8.639,10.688     c0,0-10.666-6.851,0-8.728C348.282,365.062,348.282,365.062,348.282,365.062z"/>
			<path style="fill:#D4D4D4;" d="M424.623,368.868c0,0,5.355-8.051,10.924-1.928c1.068,2.122-1.462,8.351-7.862,10.377     c0,0,4.265-2.563,2.265-6.492C427.949,366.895,426.046,368.564,424.623,368.868z"/>
			<path style="fill:#191427;" d="M429.183,355.397c0.033-0.724,0.057-1.447,0.064-2.168c0.012-1.291-1.988-1.289-2,0     c-0.085,9.209-2.307,18.197-8.06,25.549c-7.468,9.541-19.696,14.109-31.273,15.492c-11.498-1.373-22.711-5.814-30.591-14.675     c-2.71-3.047-4.673-6.573-6.048-10.337c-0.008-0.08-0.034-0.162-0.08-0.251c-0.123-0.571-0.314-1.128-0.566-1.659     c-1.402-4.558-2.006-9.397-2.049-14.119c-0.012-1.289-2.012-1.291-2,0c0.007,0.754,0.033,1.506,0.068,2.255     c-8.398-0.28-12.139,7.775-10.885,15.435c1.74,10.609,12.004,13.997,21.293,11.389c7.732,8.253,19.254,11.783,30.229,13.172     c0.155,0.073,0.355,0.115,0.629,0.083c0.272,0.032,0.473-0.01,0.629-0.083c11.223-1.422,22.151-5.002,30.162-13.188     c9.715,2.77,19.281-0.928,21.664-11.43C442.135,363.073,437.798,354.736,429.183,355.397z M352.212,375.717     c-2.662,0.028-6.484-0.814-6.525-3.801c-0.022-1.651,1.858-3.127,3.504-2.814C349.991,371.383,350.992,373.594,352.212,375.717z      M337.835,371.077c-1.676-6.637,1.721-13.81,8.946-13.586c0.19,2.266,0.518,4.501,1.007,6.688     c-0.201-0.119-0.404-0.236-0.619-0.334c-2.591-1.187-5.037,0.301-6.63,2.344c-0.783,1.004-0.357,1.736,0.437,0.721l0.77-1.014     c1.273-1.633,3.075-1.109,5.094,0.022c0.755,0.422,1.421,1.095,1.913,1.858c0.003,0.007,0.006,0.015,0.008,0.021     c-2.266-0.164-4.197,1.945-4.443,4.432c-0.172,1.75,0.744,3.314,2.103,4.334c1.926,1.441,4.667,1.375,6.984,1.08     c0.568,0.866,1.17,1.719,1.82,2.551c0.119,0.152,0.25,0.289,0.371,0.44C347.623,382.524,340.032,379.778,337.835,371.077z      M426.298,370.241c0.012-0.03,0.034-0.048,0.044-0.08c0.048-0.155,0.118-0.304,0.175-0.457c1.505-0.523,3.033,0.975,3.146,2.713     c0.185,2.877-3.457,3.41-5.963,3.327C424.72,373.985,425.583,372.143,426.298,370.241z M438.283,371.022     c-1.992,8.784-10.207,11.435-18.047,9.607c0.822-0.955,1.58-1.951,2.275-2.982c3.693,0.378,9.221-0.252,8.909-5.09     c-0.157-2.43-2.083-4.287-4.236-4.285c0.483-0.833,1.091-1.588,1.874-2.166c1.893-1.395,3.973-1.096,5.189,0.456     c0.794,1.015,1.825,0.629,1.04-0.374c-1.563-1.996-3.99-3.512-6.516-2.219c-0.26,0.133-0.508,0.285-0.747,0.446     c0.511-2.307,0.844-4.658,1.032-7.013C436.957,356.726,439.818,364.254,438.283,371.022z"/>
			<g>
				<path style="fill:#191427;" d="M418.012,359.391c-3.358-6.377-12.887-10.232-19.201-5.859c-1.052,0.729-0.054,2.463,1.01,1.727      c1.106-0.766,2.365-1.232,3.688-1.466c-0.185,2.655-0.413,9.533,2.14,9.936c3.061,0.482,5.211-2.703,4.735-9.197      c2.947,1.096,5.541,3.09,6.848,5.572C417.833,361.245,418.613,360.531,418.012,359.391z"/>
				<path style="fill:#191427;" d="M358.272,359.391c3.358-6.377,12.887-10.232,19.201-5.859c1.052,0.729,0.054,2.463-1.01,1.727      c-1.106-0.766-2.365-1.232-3.688-1.466c0.185,2.655,0.413,9.533-2.14,9.936c-3.061,0.482-5.211-2.703-4.735-9.197      c-2.947,1.096-5.541,3.09-6.848,5.572C358.451,361.245,357.671,360.531,358.272,359.391z"/>
			</g>
			<path style="fill:#191427;" d="M389.142,359.618l1.276,9.869c0.143,1.112-0.759,2.118-2.017,2.246     c-1.257,0.127-2.393-0.672-2.537-1.785c-0.02-0.152-0.018-0.315,0-0.461l1.277-9.869c0.063-0.488,0.562-0.84,1.114-0.783     C388.73,358.882,389.089,359.215,389.142,359.618z"/>
			<path style="fill:#D4D4D4;" d="M376.515,376.656c0,0,9.1,7.927,23.934,0C400.449,376.656,388.083,387.75,376.515,376.656z"/>
			<path style="fill:#191427;" d="M375.734,375.829c0,0,0.065,0.075,0.186,0.216c0.131,0.142,0.324,0.356,0.596,0.611     c0.541,0.511,1.371,1.208,2.477,1.893c0.553,0.342,1.169,0.69,1.848,1.004c0.68,0.313,1.412,0.613,2.195,0.852     c0.785,0.233,1.607,0.443,2.459,0.569c0.429,0.048,0.859,0.095,1.293,0.144l1.311,0.051l1.318-0.075     c0.439-0.034,0.858-0.114,1.283-0.168c0.426-0.04,0.84-0.169,1.249-0.265c0.411-0.092,0.814-0.201,1.198-0.344     c0.387-0.137,0.774-0.244,1.137-0.398c0.359-0.162,0.71-0.322,1.052-0.477c0.69-0.287,1.282-0.696,1.852-1.008     c0.559-0.334,1.033-0.709,1.466-1.01c0.439-0.289,0.772-0.624,1.063-0.865c0.564-0.506,0.887-0.795,0.887-0.795l0.049-0.043     c0.414-0.373,1.053-0.338,1.426,0.078c0.372,0.415,0.338,1.054-0.078,1.426c-0.059,0.053-0.125,0.099-0.191,0.135     c0,0-0.405,0.221-1.115,0.608c-0.355,0.19-0.764,0.452-1.273,0.686c-0.508,0.238-1.058,0.538-1.682,0.817     c-0.643,0.246-1.3,0.582-2.045,0.825c-0.369,0.126-0.748,0.256-1.135,0.389c-0.395,0.109-0.797,0.222-1.206,0.336     c-0.406,0.123-0.828,0.212-1.26,0.284c-0.432,0.069-0.857,0.183-1.306,0.224c-0.443,0.048-0.896,0.121-1.34,0.148l-1.343,0.052     l-1.353-0.027c-0.448-0.041-0.895-0.082-1.338-0.123c-0.88-0.125-1.746-0.261-2.572-0.466c-0.822-0.213-1.613-0.441-2.352-0.701     c-0.733-0.27-1.422-0.545-2.05-0.825c-1.249-0.57-2.259-1.136-2.958-1.564c-0.346-0.22-0.625-0.39-0.813-0.519     c-0.19-0.137-0.293-0.209-0.293-0.209c-0.453-0.322-0.559-0.952-0.236-1.406c0.322-0.453,0.952-0.56,1.406-0.236     c0.066,0.047,0.127,0.102,0.178,0.162L375.734,375.829z"/>
			<g>
				<g>
					<path style="fill:#191427;" d="M409.998,349.997c-2.565-0.804-5.216-0.93-7.766,0c-0.601,0.22-0.342,1.186,0.266,0.965       c2.398-0.875,4.822-0.757,7.234,0C410.349,351.155,410.611,350.189,409.998,349.997L409.998,349.997z"/>
				</g>
			</g>
			<g>
				<g>
					<path style="fill:#191427;" d="M372.748,349.747c-2.655-0.784-5.474-0.217-7.885,1.051c-0.571,0.3-0.065,1.163,0.504,0.863       c2.179-1.145,4.716-1.658,7.115-0.949C373.102,350.894,373.365,349.929,372.748,349.747L372.748,349.747z"/>
				</g>
			</g>
			<g>
				<g>
					<path style="fill:#191427;" d="M390.748,384.497c-1.616-0.266-3.242-0.499-4.883-0.518c-0.645-0.008-0.645,0.992,0,1       c1.553,0.018,3.087,0.23,4.617,0.482C391.113,385.565,391.383,384.601,390.748,384.497L390.748,384.497z"/>
				</g>
			</g>
			<path style="fill:#191427;" d="M425.083,419c-3.351-7.057-14.573-11.602-21.306-13.974c-0.063-0.201-0.186-0.391-0.406-0.536     c-2.507-1.654-5.82-2.035-8.049-4.094c-0.945-0.875-2.363,0.537-1.414,1.414c2.134,1.971,5.041,2.53,7.541,3.871     c0,0.005,0.003,0.01,0.003,0.015c-0.799,2.264-2.842,4.098-4.544,5.669c-1.67,1.542-17.563,1.777-19.126,0.412     c-1.862-1.629-4.155-3.656-5.005-6.092c2.5-1.344,5.411-1.902,7.545-3.875c0.949-0.877-0.469-2.289-1.414-1.414     c-2.227,2.059-5.541,2.439-8.047,4.094c-0.06,0.039-0.105,0.085-0.151,0.13c-0.157-0.039-0.328-0.049-0.526,0.019     c-6.225,2.127-17.873,6.263-21.942,13.109c-0.064,0.182-1.478,4.234-0.892,5.736c5.094,0.801,10.55,0.395,15.684,0.42     c7.601,0.039,15.201,0.006,22.801-0.04c7.994,0.063,15.986,0.181,23.978,0.247c4.891,0.041,10.11,0.496,15-0.145     C425.853,422.657,425.093,419.053,425.083,419z M408.498,422.102c-6.723-0.057-37.393-0.172-44.149-0.191     c-5.031-0.016-10.438,0.408-15.481-0.23c0.735-4.565,6.253-7.657,9.837-9.736c3.786-2.197,7.872-3.963,12.011-5.376     c0.087-0.03,0.147-0.082,0.216-0.126c0.854,2.328,2.781,4.257,4.524,5.918c2.182,2.08,4.624,3.971,7.156,5.607     c0.707,0.457,1.373-0.117,1.459-0.766h6.091c0.085,0.648,0.753,1.223,1.46,0.766c2.371-1.533,4.602-3.303,6.701-5.188     c1.785-1.602,3.779-3.557,4.78-5.848c3.827,1.392,7.509,3.157,11.04,5.182c3.616,2.074,9.102,5.391,9.837,9.959     C418.943,422.68,413.511,422.143,408.498,422.102z"/>
			<path style="fill:#FFFFFF;" d="M380.324,394.292v9.063l6.792,17.014l6.792-18.557l-0.787-7.873     C393.121,393.938,388.499,396.658,380.324,394.292z"/>
			<path style="fill:#D4D4D4;" d="M380.324,396.729c0,0,5.752,4.625,13.584,0c-0.168-2.5-0.787-2.791-0.787-2.791     s-6.642,1.498-13.574-0.293C379.251,395.869,380.324,396.729,380.324,396.729z"/>
			<g>
				<path style="fill:#191427;" d="M380.902,402.957c-0.03-0.051-0.072-0.093-0.1-0.145c-0.102-0.196,0.338-5.759,0.563-8.655      c0.101-1.287-1.9-1.277-2,0c-0.225,2.896-0.273,5.801-0.5,8.697c0.511,1.104,1.22,1.972,2.037,2.667V402.957z"/>
				<path style="fill:#191427;" d="M394.865,394.604c0-1.29-2-1.29-2,0c0.001,1.512,0.154,3.877,0.262,5.518l0,0      c0,0,0.06,0.52,0.081,1.288c0.018,0.323,0.026,0.527,0.017,0.554c-0.003,0.007-0.008,0.013-0.01,0.02      c-0.004,1.058-0.103,2.396-0.472,3.596c0.953-0.733,1.696-1.644,2.087-2.709c0.003-0.009,0-0.016,0.004-0.023      c0.191-0.159,0.313-0.402,0.281-0.742C394.884,399.608,394.866,397.108,394.865,394.604z"/>
			</g>
			<polygon style="fill:#191427;" points="365.656,407.153 384.493,422.963 391.743,422.963 406.868,407.153 393.908,401.811      386.702,417.202 380.322,401.811    "/>
			<path style="fill:#191427;" d="M395.598,403.038l-8.482,19.566l17.594-15.451C404.71,407.153,397.972,404.112,395.598,403.038z"/>
			<polygon style="fill:#191427;" points="377.92,403.038 386.284,422.604 369.061,407.153    "/>
		</g>
		<path style="fill:#009D96;" d="M393.452,289.797c0,0,2.833,4.666,0,11.833c0,0,7.555-4.272,19.667,2.167    c12.112,6.439,22.166,15.719,30.833,10.609c0,0-2.833,15.39-27.5,20.057c0,0-17.167,0.167-24.667-1.833c0,0,5.604,3.904,8,4.667    c0,0-22.499,6.834-39.666,0c-17.167-6.834-15.834-24.333-3.834-29S387.952,298.964,393.452,289.797z"/>
		<path style="fill:#047E8E;" d="M392.743,289.797c0,0,1.262,10.999-10.182,16.666c0,0,7.33-1.001,11.443-5.667    C394.004,300.796,397.035,292.465,392.743,289.797z"/>
		<path style="fill:#047E8E;" d="M433.785,319.167c-8,4.964-19.338,15.425-46.669,10.527l2.112,6.102c0,0-31.25,4.541-40.014-13.229    c0,0-0.722,0.647-1.633,1.713c1.117,5.067,5.079,10.049,12.537,13.018c17.167,6.834,39.666,0,39.666,0    c-2.396-0.763-8-4.667-8-4.667c7.5,2,24.667,1.833,24.667,1.833c24.667-4.667,27.5-20.057,27.5-20.057    c-6.309,3.719-13.353-0.186-21.389-5.069h-2.945C419.618,309.337,425.669,316.862,433.785,319.167z"/>
		<path style="fill:#191427;" d="M421.514,307.797c-7.666-6.666-20.667-9.667-26.332-8.667c3.335-7-1.984-11.333-1.984-11.333    c-0.982,7-22.351,13.666-35.688,18.666c-13.337,5-11.012,15.667-11.012,15.667c0.557,3.64,1.844,6.617,3.669,9.045h-0.001    c0.149,0.501,7.89,22.288,44.007,8.443c5.794-0.929,9.716-1.978,9.716-1.978l-3.038-1.06c-1.574-0.597-3.538-1.399-5.329-2.3    c44.112,10.748,52.658-25.484,52.658-25.484C445.725,314.797,429.18,314.463,421.514,307.797z M357.956,337.346    c8.417,4.028,19.862,4.113,29.225,3.184C381.219,343.374,367.988,345.176,357.956,337.346z M385.493,329.151    c0,0,6.897,5.836,10.626,7.979c-1.183,0.295-27.652,6.526-40.604-3.5c-10.259-7.941-7.307-21.733,3.328-25.167    c24.776-8,34.609-16.666,34.609-16.666c2.538,5.094-2.774,12-2.774,12c6.584-3.334,14.26-4.337,27.613,4.666    c15.328,10.334,23.53,7.912,23.53,7.912C426.461,344.288,385.493,329.151,385.493,329.151z"/>
		<path style="fill:#191427;" d="M348.368,327.213c0,0-7.296,15.502-3.236,28.695c1.65,1.582,3.586,0.82,3.586,0.82    s-1.499-13.016,7.714-20.17C353.989,332.973,348.368,327.213,348.368,327.213z"/>
		<path style="fill:#191427;" d="M428.917,330.516c0,0,5.973,12.199,1.913,25.393c-1.65,1.582-3.586,0.82-3.586,0.82    s0.134-13.311-7.627-22.766C422.06,330.378,428.917,330.516,428.917,330.516z"/>
		<path style="fill:#191427;" d="M443.952,314.407c0,0-11.167,9.463-21.834,4.76c-10.667-4.703-23.083-7.149-29.375-4.76    c0,0,7.53-3.943,16.119-2.943c8.589,1,20.031,12.538,30.871,3.602C443.952,314.407,443.952,314.407,443.952,314.407z"/>
		<path style="fill:#191427;" d="M348.368,327.213c0,0-1.932-8.462,12.732-13.75c0,0-15.147,11.751-5.648,21    C350.167,333.796,348.368,327.213,348.368,327.213z"/>
		<path style="fill:#191427;" d="M352.117,333.051c0,0-2.249-6.963,11.462-10.088c0,0-11.168,4.923-7.148,12.545    C355.451,334.463,352.117,333.051,352.117,333.051z"/>
	</g>
</svg> 