<svg width="100" height="100" viewBox="0 0 100 100" fill="none" xmlns="http://www.w3.org/2000/svg">
<g xmlns="http://www.w3.org/2000/svg" id="_x30_4">
		<path style="fill:#FFFFFF;" d="M106.827,394.292v9.063c0,0,1.666,5.75,10.291,2c3-2,3.293-3.543,3.293-3.543l-0.787-7.873    C119.624,393.938,115.002,396.658,106.827,394.292z"/>
		<path style="fill:#D4D4D4;" d="M106.827,396.729c0,0,5.752,4.625,13.584,0c-0.168-2.5-0.787-2.791-0.787-2.791    s-6.643,1.498-13.574-0.293C105.754,395.869,106.827,396.729,106.827,396.729z"/>
		<path style="fill:#191427;" d="M125.504,404.58c0,0-8.887,5.603-17.012,3.126s-9.121-2.413-9.121-2.413    s-23.254,5.436-24.879,17.311h42.443c0,0,33.523,1.422,34.189,0.75c0.666-0.672-0.508-3.625-0.633-4.125s-1.99-4.283-7.625-6.625    C137.233,410.261,125.504,404.58,125.504,404.58z"/>
		<path style="fill:#FFB8A1;" d="M139.983,411.742v11.669c0,0,10.76,1.08,11.303-0.78    C151.827,420.77,149.348,413.686,139.983,411.742z"/>
		<path style="fill:#FFB8A1;" d="M85.866,411.742v11.669c0,0-10.76,1.08-11.303-0.78C74.022,420.77,76.5,413.686,85.866,411.742z"/>
		<path style="fill:#FFB8A1;" d="M121.547,401.229c0,0-1.218,4.46-8.069,5.811c0.088-0.258,0.14-0.416,0.14-0.416    s-6.791,2.355-8.253-5.395l-6.452,4.375c0,0,1.705,7.25,10.33,11.125c1.531-2.342,3.123-6.543,3.895-8.715    c2.028,3.242,5.105,8.715,5.105,8.715s8.813-6.25,10.594-11.375C126.493,403.854,121.547,401.229,121.547,401.229z"/>
		<path style="fill:#FFFFFF;" d="M66.618,358.562c0,0-8.033,9.049-0.35,18.774c7.684,9.726,17.35,3.394,17.35,3.394    s10.43,14.081,30.799,13.54c0,0,14.761,1.125,30.314-12.708c4.221,0.5,16.387,2.302,19.887-7.099    c3.5-9.401,1.883-18.109-10.431-18.309c0.554-7.297-8.236-35.426-34.569-36.926s-47.833,24.5-44.333,41.666    C75.083,353.229,71.634,355.527,66.618,358.562z"/>
		<path style="fill:#D4D4D4;" d="M132.618,330.796c0,0-31.666,37.604-41,22.302c-7.333,9.365-19.267,11.739-18.467,2.386    c1.467-9.02,25.762-20.353,25.762-20.353S133.285,315.129,132.618,330.796z"/>
		<path style="fill:#D4D4D4;" d="M132.618,331.782c0,0,3.75,24.349,22.441,26.788l-1.167-6.309l-20.44-20.479H132.618z"/>
		<path style="fill:#D4D4D4;" d="M74.785,365.062c0,0-4.499-3.454-7.306,1.847c-1.027,1.82-0.027,10.057,8.639,10.688    c0,0-10.666-6.851,0-8.728C74.785,365.062,74.785,365.062,74.785,365.062z"/>
		<path style="fill:#D4D4D4;" d="M151.125,368.868c0,0,5.355-8.051,10.924-1.928c1.068,2.122-1.462,8.351-7.862,10.377    c0,0,4.265-2.563,2.265-6.492C154.452,366.895,152.549,368.564,151.125,368.868z"/>
		<path style="fill:#191427;" d="M155.686,355.397c0.033-0.724,0.057-1.447,0.063-2.168c0.012-1.291-1.988-1.289-2,0    c-0.085,9.209-2.307,18.197-8.061,25.549c-7.468,9.541-19.696,14.109-31.272,15.492c-11.498-1.373-22.711-5.814-30.591-14.675    c-2.71-3.047-4.673-6.573-6.048-10.337c-0.008-0.08-0.034-0.162-0.08-0.251c-0.123-0.571-0.315-1.128-0.566-1.659    c-1.402-4.558-2.006-9.397-2.049-14.119c-0.012-1.289-2.012-1.291-2,0c0.007,0.754,0.033,1.506,0.068,2.255    c-8.398-0.28-12.139,7.775-10.885,15.435c1.74,10.609,12.004,13.997,21.293,11.389c7.732,8.253,19.254,11.783,30.229,13.172    c0.155,0.073,0.355,0.115,0.629,0.083c0.271,0.032,0.473-0.01,0.629-0.083c11.223-1.422,22.151-5.002,30.162-13.188    c9.715,2.77,19.281-0.928,21.664-11.43C168.638,363.073,164.301,354.736,155.686,355.397z M78.715,375.717    c-2.662,0.028-6.484-0.814-6.525-3.801c-0.022-1.651,1.857-3.127,3.504-2.814C76.494,371.383,77.495,373.594,78.715,375.717z     M64.338,371.077c-1.676-6.637,1.721-13.81,8.946-13.586c0.19,2.266,0.519,4.501,1.007,6.688    c-0.201-0.119-0.404-0.236-0.619-0.334c-2.591-1.187-5.037,0.301-6.63,2.344c-0.783,1.004-0.356,1.736,0.437,0.721l0.771-1.014    c1.272-1.633,3.075-1.109,5.094,0.022c0.755,0.422,1.421,1.095,1.913,1.858c0.003,0.007,0.006,0.015,0.008,0.021    c-2.266-0.164-4.197,1.945-4.443,4.432c-0.172,1.75,0.744,3.314,2.104,4.334c1.926,1.441,4.667,1.375,6.984,1.08    c0.568,0.866,1.17,1.719,1.82,2.551c0.119,0.152,0.25,0.289,0.371,0.44C74.125,382.524,66.535,379.778,64.338,371.077z     M152.801,370.241c0.012-0.03,0.034-0.048,0.044-0.08c0.048-0.155,0.118-0.304,0.175-0.457c1.505-0.523,3.033,0.975,3.146,2.713    c0.185,2.877-3.457,3.41-5.963,3.327C151.223,373.985,152.087,372.143,152.801,370.241z M164.786,371.022    c-1.992,8.784-10.207,11.435-18.047,9.607c0.822-0.955,1.58-1.951,2.275-2.982c3.693,0.378,9.221-0.252,8.909-5.09    c-0.157-2.43-2.083-4.287-4.236-4.285c0.483-0.833,1.091-1.588,1.874-2.166c1.893-1.395,3.973-1.096,5.188,0.456    c0.794,1.015,1.825,0.629,1.04-0.374c-1.563-1.996-3.99-3.512-6.516-2.219c-0.26,0.133-0.508,0.285-0.747,0.446    c0.511-2.307,0.844-4.658,1.032-7.013C163.459,356.726,166.321,364.254,164.786,371.022z"/>
		<g>
			<path style="fill:#191427;" d="M144.515,359.391c-3.358-6.377-12.887-10.232-19.201-5.859c-1.052,0.729-0.054,2.463,1.01,1.727     c1.106-0.766,2.365-1.232,3.688-1.466c-0.184,2.655-0.413,9.533,2.14,9.936c3.061,0.482,5.211-2.703,4.735-9.197     c2.947,1.096,5.541,3.09,6.848,5.572C144.337,361.245,145.116,360.531,144.515,359.391z"/>
			<path style="fill:#191427;" d="M84.775,359.391c3.358-6.377,12.887-10.232,19.201-5.859c1.052,0.729,0.054,2.463-1.01,1.727     c-1.106-0.766-2.365-1.232-3.688-1.466c0.184,2.655,0.413,9.533-2.14,9.936c-3.061,0.482-5.211-2.703-4.735-9.197     c-2.947,1.096-5.541,3.09-6.848,5.572C84.954,361.245,84.174,360.531,84.775,359.391z"/>
		</g>
		<path style="fill:#191427;" d="M115.645,359.618l1.276,9.869c0.144,1.112-0.759,2.118-2.017,2.246    c-1.257,0.127-2.393-0.672-2.537-1.785c-0.02-0.152-0.018-0.315,0-0.461l1.277-9.869c0.063-0.488,0.562-0.84,1.114-0.783    C115.233,358.882,115.592,359.215,115.645,359.618z"/>
		<path style="fill:#D4D4D4;" d="M103.018,376.656c0,0,9.1,7.927,23.934,0C126.952,376.656,114.585,387.75,103.018,376.656z"/>
		<path style="fill:#191427;" d="M102.237,375.829c0,0,0.064,0.075,0.185,0.216c0.131,0.142,0.324,0.356,0.596,0.611    c0.541,0.511,1.371,1.208,2.477,1.893c0.553,0.342,1.169,0.69,1.848,1.004c0.68,0.313,1.412,0.613,2.195,0.852    c0.785,0.233,1.607,0.443,2.459,0.569c0.429,0.048,0.859,0.095,1.293,0.144l1.311,0.051l1.318-0.075    c0.439-0.034,0.858-0.114,1.283-0.168c0.426-0.04,0.84-0.169,1.249-0.265c0.411-0.092,0.813-0.201,1.198-0.344    c0.387-0.137,0.774-0.244,1.137-0.398c0.359-0.162,0.71-0.322,1.052-0.477c0.691-0.287,1.282-0.696,1.852-1.008    c0.56-0.334,1.033-0.709,1.466-1.01c0.44-0.289,0.771-0.624,1.063-0.865c0.565-0.506,0.887-0.795,0.887-0.795l0.049-0.043    c0.414-0.373,1.053-0.338,1.426,0.078c0.372,0.415,0.338,1.054-0.078,1.426c-0.059,0.053-0.125,0.099-0.191,0.135    c0,0-0.405,0.221-1.115,0.608c-0.356,0.19-0.764,0.452-1.274,0.686c-0.508,0.238-1.058,0.538-1.682,0.817    c-0.643,0.246-1.3,0.582-2.045,0.825c-0.369,0.126-0.748,0.256-1.135,0.389c-0.395,0.109-0.797,0.222-1.206,0.336    c-0.406,0.123-0.828,0.212-1.26,0.284c-0.432,0.069-0.856,0.183-1.306,0.224c-0.443,0.048-0.896,0.121-1.34,0.148l-1.343,0.052    l-1.353-0.027c-0.448-0.041-0.895-0.082-1.338-0.123c-0.88-0.125-1.746-0.261-2.572-0.466c-0.822-0.213-1.613-0.441-2.351-0.701    c-0.733-0.27-1.422-0.545-2.05-0.825c-1.249-0.57-2.259-1.136-2.958-1.564c-0.346-0.22-0.625-0.39-0.813-0.519    c-0.19-0.137-0.293-0.209-0.293-0.209c-0.453-0.322-0.56-0.952-0.236-1.406c0.322-0.453,0.952-0.56,1.406-0.236    c0.066,0.047,0.127,0.102,0.178,0.162L102.237,375.829z"/>
		<g>
			<g>
				<path style="fill:#191427;" d="M136.5,349.997c-2.565-0.804-5.216-0.93-7.766,0c-0.601,0.22-0.341,1.186,0.266,0.965      c2.399-0.875,4.822-0.757,7.234,0C136.852,351.155,137.114,350.189,136.5,349.997L136.5,349.997z"/>
			</g>
		</g>
		<g>
			<g>
				<path style="fill:#191427;" d="M99.25,349.747c-2.656-0.784-5.474-0.217-7.885,1.051c-0.571,0.3-0.065,1.163,0.505,0.863      c2.178-1.145,4.715-1.658,7.115-0.949C99.604,350.894,99.868,349.929,99.25,349.747L99.25,349.747z"/>
			</g>
		</g>
		<g>
			<g>
				<path style="fill:#191427;" d="M117.25,384.497c-1.617-0.266-3.242-0.499-4.883-0.518c-0.645-0.008-0.645,0.992,0,1      c1.553,0.018,3.087,0.23,4.617,0.482C117.615,385.565,117.886,384.601,117.25,384.497L117.25,384.497z"/>
			</g>
		</g>
		<path style="fill:#191427;" d="M121.618,402.104c-0.23-2.496-0.249-4.996-0.25-7.5c0-1.29-2-1.29-2,0    c0.001,2.469,0.41,7.223,0.359,7.359c-1.4,3.824-10.51,4.508-12.422,0.849c-0.102-0.196,0.338-5.759,0.563-8.655    c0.101-1.287-1.9-1.277-2,0c-0.225,2.896-0.273,5.801-0.5,8.697c3.25,7.031,13.995,5.391,15.965,0.016    c0.003-0.009,0-0.016,0.004-0.023C121.528,402.687,121.649,402.444,121.618,402.104z"/>
		<path style="fill:#191427;" d="M129.874,404.491c-2.507-1.654-5.82-2.035-8.049-4.094c-0.945-0.875-2.363,0.537-1.414,1.414    c2.136,1.973,5.047,2.531,7.549,3.875c-0.797,2.268-2.844,4.105-4.549,5.68c-1.67,1.542-3.479,2.959-5.361,4.242    c-1.475-2.582-2.621-5.604-3.434-8.409c-0.002-0.019-0.012-0.034-0.016-0.054c-0.006-0.018-0.012-0.038-0.018-0.057    c-0.004-0.016-0.014-0.023-0.02-0.037c-0.033-0.101-0.076-0.193-0.142-0.273c-0.054-0.076-0.118-0.134-0.186-0.187    c-0.008-0.005-0.014-0.012-0.022-0.017c-0.1-0.07-0.205-0.121-0.321-0.148c-0.006-0.001-0.012-0.002-0.019-0.004    c-0.084-0.019-0.168-0.029-0.256-0.027c-0.088-0.002-0.17,0.009-0.256,0.027c-0.006,0.002-0.012,0.003-0.018,0.004    c-0.116,0.027-0.222,0.078-0.32,0.148c-0.008,0.005-0.015,0.012-0.022,0.017c-0.069,0.053-0.132,0.11-0.187,0.187    c-0.064,0.08-0.108,0.173-0.143,0.273c-0.004,0.015-0.014,0.022-0.019,0.037c-0.005,0.019-0.012,0.038-0.017,0.057    c-0.004,0.02-0.014,0.035-0.017,0.054c-0.812,2.806-1.958,5.827-3.433,8.407c-1.711-1.174-3.341-2.463-4.903-3.828    c-1.862-1.629-4.155-3.656-5.005-6.092c2.5-1.344,5.411-1.902,7.545-3.875c0.949-0.877-0.469-2.289-1.414-1.414    c-2.227,2.059-5.541,2.439-8.047,4.094c-0.688,0.453-0.52,1.326-0.027,1.707c0.803,2.439,2.816,4.442,4.621,6.162    c2.182,2.08,4.624,3.971,7.156,5.607c0.707,0.457,1.373-0.117,1.459-0.766c1.209-1.988,2.227-4.295,3.045-6.591    c0.818,2.296,1.836,4.603,3.046,6.591c0.085,0.648,0.753,1.223,1.46,0.766c2.371-1.533,4.602-3.303,6.701-5.188    c1.974-1.771,4.215-3.969,5.072-6.58C130.391,405.821,130.561,404.945,129.874,404.491z"/>
		<path style="fill:#191427;" d="M151.585,419c-3.542-7.459-15.889-12.117-22.42-14.361c-1.224-0.42-1.743,1.512-0.531,1.929    c4.181,1.436,8.18,3.35,12.011,5.546c3.616,2.074,9.102,5.391,9.837,9.959c-5.036,0.607-10.468,0.07-15.482,0.029    c-6.723-0.057-37.393-0.172-44.149-0.191c-5.031-0.016-10.438,0.408-15.481-0.23c0.735-4.565,6.253-7.657,9.837-9.736    c3.786-2.197,7.872-3.963,12.011-5.376c1.213-0.415,0.692-2.347-0.531-1.929c-6.226,2.127-17.873,6.263-21.942,13.109    c-0.063,0.182-1.478,4.234-0.892,5.736c5.094,0.801,10.55,0.395,15.684,0.42c7.601,0.039,15.201,0.006,22.801-0.04    c7.994,0.063,15.986,0.181,23.979,0.247c4.891,0.041,10.11,0.496,15-0.145C152.356,422.657,151.596,419.053,151.585,419z"/>
		<polygon style="fill:#191427;" points="138.8,422.2 142.618,417.732 140.709,423.476   "/>
		<polygon style="fill:#191427;" points="86.948,421.96 83.618,418.131 84.559,422.604   "/>
		<path style="fill:#191427;" d="M163.285,337.296c-1.833-11.667-11.956-14.743-11.956-14.743c5.956-4.666,5.623-8.332,1.956-10.666    c-3.069-1.953-6.439,1.283-7.916,4.91c0.833-3.424,1.466-9.732-5.386-9.244c-5.51,0.393-5.238,3.784-4.082,6.511    c-3.74-4.828-13.568-12.472-36.988-7.99c-4.893,0.937-9.227,2.679-13.032,4.959c-0.004,0-0.015-0.003-0.015-0.003l-1.307,0.817    c0,0-0.029,0.02-0.07,0.049c-1.572,1.033-3.044,2.163-4.42,3.367c-10.244,8.289-32.717,29.711-9.286,42.214l-0.001-0.003    c8.551,5.592,17.922-5.389,23.424-11.589c0,0-10.254,23.639,38.412-14.347c0,0,8.437,22.222,22.088,23.532    c-0.067,0.283,0.008,0.646,0.354,1.113C162.576,356.266,165.118,348.963,163.285,337.296z M65.733,348.932    c-2.907-3.169-5.058-9.802,5.125-22.262C66.485,334.438,64.799,342.792,65.733,348.932z M159.032,352.936    c2.375-4.906,3.693-16.985-2.383-25.378c2.344,2.446,5.084,6.737,5.638,13.738C162.842,348.319,160.885,351.496,159.032,352.936z"/>
	</g>
</svg> 