<svg width="100" height="100" viewBox="0 0 100 100" fill="none" xmlns="http://www.w3.org/2000/svg">
<g xmlns="http://www.w3.org/2000/svg" id="_x30_5">
		<g id="_x30_2_1_">
			<path style="fill:#FFFFFF;" d="M246.4,394.292v9.063c0,0,1.667,5.75,10.291,2c3-2,3.293-3.543,3.293-3.543l-0.787-7.873     C259.197,393.938,254.576,396.659,246.4,394.292z"/>
			<path style="fill:#D4D4D4;" d="M246.4,396.729c0,0,5.752,4.625,13.584,0c-0.168-2.5-0.787-2.791-0.787-2.791     s-6.643,1.498-13.574-0.293C245.328,395.87,246.4,396.729,246.4,396.729z"/>
			<path style="fill:#191427;" d="M260.906,402.87c0,0-7.714,7.484-15.964-0.016c-2.35,0.625-4.914,1.473-4.914,1.473     s-24.336,6.402-25.961,18.277h42.442c0,0,33.524,1.422,34.19,0.75c0.666-0.672-0.508-3.625-0.633-4.125s-2.319-3.609-7.625-6.625     C276.722,409.354,260.906,402.87,260.906,402.87z"/>
			<path style="fill:#FFFFFF;" d="M206.192,358.563c0,0-8.034,9.049-0.351,18.773c7.684,9.727,17.351,3.395,17.351,3.395     s10.429,14.08,30.798,13.539c0,0,14.761,1.125,30.314-12.707c4.221,0.5,16.387,2.301,19.887-7.1     c3.5-9.4,1.883-18.109-10.431-18.309c0.554-7.297-8.236-35.426-34.569-36.926c-26.333-1.5-47.833,24.5-44.333,41.666     C209.525,359.563,210.525,357.895,206.192,358.563z"/>
			<path style="fill:#D4D4D4;" d="M214.358,365.063c0,0-4.498-3.455-7.306,1.846c-1.027,1.82-0.027,10.057,8.64,10.688     c0,0-10.667-6.85,0-8.728C214.358,365.063,214.358,365.063,214.358,365.063z"/>
			<path style="fill:#D4D4D4;" d="M290.699,368.868c0,0,5.355-8.051,10.924-1.928c1.068,2.123-1.462,8.352-7.862,10.377     c0,0,4.265-2.563,2.265-6.492C294.025,366.895,292.123,368.565,290.699,368.868z"/>
			<path style="fill:#191427;" d="M295.259,355.397c0.033-0.723,0.057-1.447,0.064-2.168c0.012-1.291-1.988-1.289-2,0     c-0.085,9.209-2.307,18.197-8.061,25.549c-7.468,9.541-19.696,14.109-31.272,15.492c-11.498-1.373-22.711-5.814-30.591-14.674     c-2.71-3.047-4.673-6.574-6.048-10.338c-0.008-0.08-0.034-0.162-0.08-0.25c-0.123-0.572-0.314-1.129-0.566-1.66     c-1.402-4.557-2.005-9.397-2.049-14.119c-0.012-1.289-2.012-1.291-2,0c0.007,0.754,0.033,1.506,0.069,2.256     c-8.399-0.281-12.14,7.775-10.885,15.434c1.739,10.609,12.004,13.998,21.293,11.389c7.731,8.254,19.253,11.783,30.228,13.172     c0.155,0.074,0.355,0.115,0.629,0.084c0.271,0.031,0.473-0.01,0.629-0.084c11.223-1.422,22.151-5.002,30.162-13.188     c9.715,2.77,19.281-0.928,21.664-11.43C308.211,363.073,303.874,354.737,295.259,355.397z M218.289,375.717     c-2.662,0.029-6.484-0.814-6.525-3.801c-0.022-1.65,1.858-3.127,3.504-2.814C216.067,371.383,217.068,373.594,218.289,375.717z      M203.912,371.077c-1.675-6.637,1.721-13.809,8.946-13.586c0.191,2.266,0.519,4.502,1.007,6.688     c-0.201-0.119-0.404-0.236-0.618-0.334c-2.592-1.186-5.037,0.301-6.631,2.344c-0.783,1.004-0.357,1.736,0.436,0.721l0.771-1.014     c1.273-1.633,3.076-1.109,5.094,0.022c0.755,0.422,1.421,1.096,1.914,1.859c0.002,0.006,0.005,0.014,0.007,0.02     c-2.265-0.164-4.197,1.945-4.442,4.432c-0.173,1.75,0.743,3.314,2.102,4.334c1.926,1.441,4.667,1.375,6.984,1.08     c0.569,0.867,1.17,1.719,1.82,2.551c0.119,0.152,0.25,0.289,0.371,0.44C213.699,382.524,206.108,379.778,203.912,371.077z      M292.374,370.241c0.012-0.029,0.034-0.047,0.044-0.08c0.048-0.154,0.118-0.303,0.175-0.457c1.505-0.523,3.033,0.975,3.146,2.713     c0.185,2.877-3.457,3.41-5.963,3.328C290.796,373.985,291.66,372.143,292.374,370.241z M304.359,371.022     c-1.992,8.785-10.207,11.435-18.047,9.607c0.822-0.955,1.58-1.951,2.275-2.982c3.693,0.379,9.221-0.252,8.909-5.09     c-0.157-2.43-2.083-4.287-4.236-4.285c0.483-0.832,1.091-1.588,1.874-2.166c1.893-1.395,3.973-1.096,5.189,0.457     c0.794,1.014,1.825,0.629,1.04-0.375c-1.563-1.996-3.99-3.512-6.516-2.219c-0.26,0.133-0.508,0.285-0.747,0.447     c0.511-2.307,0.844-4.658,1.032-7.014C303.033,356.727,305.894,364.254,304.359,371.022z"/>
			<path style="fill:#191427;" d="M255.218,359.618l1.276,9.869c0.143,1.113-0.759,2.119-2.017,2.246     c-1.257,0.127-2.393-0.672-2.537-1.785c-0.02-0.152-0.018-0.315,0-0.461l1.277-9.869c0.063-0.488,0.561-0.84,1.114-0.783     C254.806,358.883,255.166,359.215,255.218,359.618z"/>
			<path style="fill:#D4D4D4;" d="M242.592,376.657c0,0,9.099,7.926,23.933,0C266.525,376.657,254.159,387.75,242.592,376.657z"/>
			<path style="fill:#191427;" d="M241.811,375.829c0,0,0.064,0.076,0.184,0.217c0.131,0.141,0.324,0.355,0.597,0.611     c0.541,0.51,1.37,1.207,2.477,1.892c0.553,0.342,1.168,0.69,1.848,1.004c0.679,0.313,1.411,0.613,2.195,0.852     c0.784,0.234,1.606,0.443,2.458,0.57c0.429,0.047,0.859,0.094,1.293,0.143l1.311,0.051l1.318-0.074     c0.439-0.035,0.858-0.115,1.283-0.168c0.426-0.041,0.84-0.17,1.249-0.266c0.411-0.092,0.813-0.201,1.198-0.344     c0.387-0.137,0.774-0.244,1.137-0.398c0.359-0.162,0.71-0.322,1.052-0.477c0.69-0.287,1.282-0.695,1.852-1.008     c0.56-0.334,1.033-0.709,1.466-1.01c0.439-0.289,0.771-0.623,1.063-0.865c0.564-0.506,0.887-0.795,0.887-0.795l0.049-0.043     c0.414-0.373,1.053-0.338,1.426,0.078c0.372,0.416,0.338,1.055-0.078,1.426c-0.059,0.053-0.125,0.1-0.191,0.135     c0,0-0.405,0.221-1.115,0.609c-0.355,0.189-0.764,0.451-1.273,0.685c-0.508,0.238-1.058,0.539-1.682,0.818     c-0.642,0.246-1.3,0.582-2.045,0.824c-0.369,0.127-0.748,0.256-1.135,0.389c-0.395,0.109-0.797,0.223-1.206,0.336     c-0.406,0.123-0.828,0.213-1.26,0.285c-0.432,0.068-0.856,0.182-1.306,0.223c-0.443,0.049-0.896,0.121-1.34,0.148l-1.343,0.053     l-1.353-0.027c-0.448-0.041-0.895-0.082-1.338-0.123c-0.88-0.125-1.746-0.262-2.572-0.467c-0.821-0.213-1.612-0.441-2.352-0.701     c-0.733-0.27-1.422-0.545-2.05-0.824c-1.249-0.57-2.259-1.137-2.957-1.564c-0.346-0.221-0.626-0.391-0.813-0.52     c-0.191-0.137-0.293-0.209-0.293-0.209c-0.454-0.322-0.561-0.951-0.237-1.406c0.322-0.453,0.952-0.559,1.406-0.236     c0.067,0.047,0.127,0.102,0.179,0.162L241.811,375.829z"/>
			<g>
				<g>
					<path style="fill:#191427;" d="M276.074,349.997c-2.565-0.804-5.216-0.93-7.766,0c-0.601,0.22-0.342,1.186,0.266,0.965       c2.398-0.875,4.822-0.757,7.234,0C276.425,351.155,276.687,350.189,276.074,349.997L276.074,349.997z"/>
				</g>
			</g>
			<g>
				<g>
					<path style="fill:#191427;" d="M238.825,349.747c-2.656-0.784-5.474-0.217-7.885,1.051c-0.571,0.3-0.065,1.163,0.505,0.863       c2.178-1.145,4.715-1.658,7.115-0.949C239.179,350.894,239.442,349.929,238.825,349.747L238.825,349.747z"/>
				</g>
			</g>
			<g>
				<g>
					<path style="fill:#191427;" d="M256.824,384.497c-1.616-0.266-3.242-0.499-4.883-0.518c-0.646-0.008-0.645,0.992,0,1       c1.553,0.018,3.087,0.23,4.617,0.482C257.189,385.565,257.46,384.601,256.824,384.497L256.824,384.497z"/>
				</g>
			</g>
			<g>
				<path style="fill:#191427;" d="M261.191,402.104c-0.23-2.496-0.249-4.996-0.25-7.5c0-1.289-2-1.289-2,0      c0.001,2.469,0.41,7.223,0.359,7.359c-1.4,3.824-10.51,4.508-12.421,0.85c-0.102-0.197,0.337-5.76,0.563-8.656      c0.1-1.287-1.9-1.277-2,0c-0.226,2.896-0.274,5.801-0.5,8.697c3.25,7.031,13.994,5.391,15.964,0.016      c0.003-0.008,0-0.016,0.004-0.023C261.101,402.688,261.222,402.444,261.191,402.104z"/>
				<path style="fill:#191427;" d="M291.159,419c-3.542-7.459-23.436-14.652-29.968-16.896c-1.224-0.42-2.022,1.396-0.811,1.813      c4.181,1.436,16.007,6.002,19.838,8.197c3.616,2.074,9.102,5.391,9.837,9.959c-5.036,0.607-10.468,0.07-15.481,0.029      c-6.723-0.057-37.393-0.172-44.149-0.191c-5.031-0.016-10.438,0.408-15.481-0.23c0.735-4.565,6.253-7.656,9.837-9.736      c3.786-2.197,16.653-7.426,20.791-8.84c1.214-0.414,0.595-2.168-0.629-1.75c-6.226,2.127-26.556,9.549-30.625,16.395      c-0.063,0.182-1.477,4.234-0.891,5.736c5.094,0.801,10.549,0.395,15.684,0.42c7.6,0.039,15.2,0.006,22.8-0.039      c7.994,0.063,15.986,0.18,23.978,0.246c4.891,0.041,10.11,0.496,15-0.145C291.929,422.657,291.169,419.053,291.159,419z"/>
			</g>
			<path style="fill:#FFB8A1;" d="M284.43,367.491c0,2.996-4.626,5.426-10.333,5.426s-10.333-2.43-10.333-5.426     c0-2.998,4.626-5.428,10.333-5.428S284.43,364.493,284.43,367.491z"/>
			<path style="fill:#FFB8A1;" d="M244.942,367.491c0,2.996-4.626,5.426-10.333,5.426c-5.707,0-10.333-2.43-10.333-5.426     c0-2.998,4.626-5.428,10.333-5.428C240.316,362.063,244.942,364.493,244.942,367.491z"/>
			<g>
				<path style="fill:#191427;" d="M243.549,353.532c-5.074-3.514-12.218-1.709-16.573,2.443h-5.491l2.686,4.426      c0.128,0.402,0.577,0.424,0.958-0.297c1.307-2.482,3.9-4.477,6.849-5.572c-0.477,6.494,1.674,9.68,4.734,9.197      c2.553-0.402,2.324-7.281,2.14-9.936c1.323,0.232,2.583,0.699,3.689,1.465C243.603,355.995,244.602,354.26,243.549,353.532z"/>
				<path style="fill:#191427;" d="M286.972,355.975h-5.504l0.008,0.014c-4.354-4.162-11.509-5.975-16.589-2.457      c-1.052,0.729-0.054,2.463,1.01,1.727c1.106-0.766,2.365-1.232,3.688-1.465c-0.185,2.654-0.413,9.533,2.14,9.936      c3.061,0.482,5.211-2.703,4.735-9.197c2.947,1.096,5.541,3.09,6.848,5.572c0.343,0.65,0.735,0.686,0.905,0.396l0.007,0.01      L286.972,355.975z"/>
			</g>
		</g>
		<path style="fill:#191427;" d="M301.021,328.463c-5.856-26.807-41.454-35.31-62.283-25.373c0.451-1.42,3.77-13.298-12.059-11.276    v0.003c-3.336-1.07-7.416-0.738-12.309,2.314c-10.131,6.317-14.979,14.8-13.269,21.644c-3.009,14.381,10.107,11.22,10.107,11.22    l0.003-0.001c-8.378,16.61-8.767,41.729,17.82,66.252c0,0-15.955-32.792,7.516-61.621c0.497,6.896,4.799,18.922,28.867,18.327    c3.274,1.506,6.932,3.039,11.047,4.581l-3.038-15.401c0,0,19.204,22.292,2.951,56.442    C276.374,395.573,310.264,370.776,301.021,328.463z M203.317,320.152c1.835,2.267,4.67,4.167,8.605,5.477    C204.439,326.36,203.202,322.86,203.317,320.152z M229.807,293.331c3.408,0.471,8.272,2.33,7.455,9.198    C235.872,299.682,233.428,295.721,229.807,293.331z M238.947,329.915c1.02,2.244,5.308,9.268,21.317,17.533    C253.171,346.825,240.848,343.719,238.947,329.915z"/>
		<path style="fill:#FFB8A1;" d="M231.192,310.463c0,0-30.671,15.522-20.701,49.439c5.201,17.693,12.32,24.576,12.32,24.576    s-7.025-35.669,15.881-59.676c0,0,7.52,17.564,34.73,25.676c-2.158-8.683-2.825-18.614-2.825-18.614s22.18,13.6,11.09,57.266    c0,0,27.244-31.409,16.236-62.334C286.129,293.664,239.474,301.141,231.192,310.463z"/>
		<path style="fill:#EF998E;" d="M235.597,304.088c0,0-5.298-10.921-14.428-9.661c-9.131,1.26-18.917,11.954-16.994,18.62    c1.922,6.666,6.232,9.674,9.108,10.166c6.937-11.125,16.689-15.25,16.689-15.25C232.741,304.713,235.391,304.147,235.597,304.088z    "/>
		<path style="fill:#191427;" d="M216.153,319.167c0,0-12.052-4.57-9.429-16.637l1.773-1.816c0,0-5.547,11.5,10.151,16.75    C216.153,319.167,216.153,319.167,216.153,319.167z"/>
		<path style="fill:#191427;" d="M226.678,309.94c0,0,2.857-12.727-12.611-14.227l1.625-1.388c0,0,16.186,2.501,12.921,14.944    L226.678,309.94z"/>
		<path style="fill:#191427;" d="M231.192,306.69c0,0,0.996-4.69-4.514-8.477c0,0,7.455,1.203,7.063,9.477    C232.335,309.382,231.192,306.69,231.192,306.69z"/>
		<path style="fill:#191427;" d="M209.847,298.213c0,0-1.491,10.5,7.88,16.5c0,0-11.003-3.25-9.23-14    C209.847,298.213,209.847,298.213,209.847,298.213z"/>
		<path style="fill:#191427;" d="M244.942,402.13c0,0-2.845-4.554,1.155-4.5c2.988,0.04,2.334,4.5,2.334,4.5    s-0.778-4.25,2.541-4.553c3.319-0.303,2.246,4.553,2.246,4.553s0.266-4.551,2.629-4.566c3.197-0.021,2.748,3.727,2.748,3.727    s-0.827-3.625,2.6-3.713c3.245-0.083-0.005,4.526-0.005,4.526S253.483,413.056,244.942,402.13z"/>
		<path style="fill:#EF998E;" d="M298.694,329.219c0.085,8.801-1.224,22.328-8.978,32.203c0,0-4.038-11.95-10.133-18.741    c4.535,8.714,7.961,23.385,2.103,46.449c0,0,16.576-19.114,18.643-42.2c0.006-0.072,0.014-0.142,0.019-0.214    c0.06-0.71,0.099-1.426,0.131-2.143c0.015-0.298,0.025-0.6,0.036-0.9C300.645,338.947,300.12,334.088,298.694,329.219z"/>
		<path style="fill:#EF998E;" d="M273.422,350.479c-0.594-2.389-1.074-4.872-1.46-7.217c-18.95-1.903-33.271-18.459-33.271-18.459    S246.211,342.367,273.422,350.479z"/>
		<path style="fill:#EF998E;" d="M215.692,356.046c-4.054-2.678-5.898-9.898-6.728-15.318c-0.872,5.578-0.595,11.959,1.526,19.175    c5.201,17.693,12.32,24.576,12.32,24.576s-5.044-25.65,7.391-48.088c0.004-0.01,0.016-0.037,0.016-0.037    S218.847,351.963,215.692,356.046z"/>
		<path style="fill:#191427;" d="M281.687,389.13c0,0,11.5-21.241,8.372-43.954C290.059,345.176,297.11,376.797,281.687,389.13z"/>
		<path style="fill:#191427;" d="M219.359,341.429c0,0-2.232,34.366,5.337,43.7l-1.885,1.838    C222.811,386.967,214.12,375.728,219.359,341.429z"/>
	</g>
</svg> 