<svg xmlns="http://www.w3.org/2000/svg" xmlns:xlink="http://www.w3.org/1999/xlink" version="1.1" x="100px" y="100px" 
viewBox="280 100 220 200" style="enable-background:new 0 0 299.999 500;" xml:space="preserve">
<g id="BACKGROUND">
	<rect style="opacity:0.8;fill:#D1E8E3;" width="550" height="500"/>
</g>
<g xmlns="http://www.w3.org/2000/svg" id="_x30_3">
		<path style="fill:#FFFFFF;" d="M384.036,240.527v9.061c0,0,1.667,5.75,10.291,2c3-2,3.293-3.543,3.293-3.543l-0.787-7.872    C396.833,240.173,392.211,242.893,384.036,240.527z"/>
		<path style="fill:#D4D4D4;" d="M384.036,242.963c0,0,5.752,4.625,13.584,0c-0.168-2.5-0.787-2.79-0.787-2.79    s-6.643,1.497-13.574-0.294C382.962,242.104,384.036,242.963,384.036,242.963z"/>
		<path style="fill:#FFFFFF;" d="M398.542,249.104c0,0-7.714,7.484-15.964-0.016c-2.35,0.625-4.914,1.474-4.914,1.474    s-24.336,6.401-25.961,18.276h42.442c0,0,33.523,1.422,34.189,0.75c0.666-0.672-0.508-3.625-0.633-4.125s-2.319-3.609-7.625-6.625    C414.358,255.588,398.542,249.104,398.542,249.104z"/>
		<path style="fill:#009D96;" d="M383.207,247.564l-15.782,6.687l0.639,14.587h42.344l0.318-14.52l-12.184-5.215    C398.542,249.104,387.201,256.166,383.207,247.564z"/>
		<path style="fill:#FFFFFF;" d="M343.828,204.797c0,0-8.034,9.049-0.351,18.774s17.351,3.394,17.351,3.394    s10.429,14.081,30.798,13.54c0,0,14.761,1.126,30.315-12.708c4.221,0.5,16.387,2.302,19.887-7.099s1.883-18.109-10.431-18.309    c0.554-7.296-8.236-35.426-34.569-36.926s-47.833,24.501-44.333,41.667C351.166,199.963,348.843,201.762,343.828,204.797z"/>
		<path style="fill:#D4D4D4;" d="M432.09,208.667c-2.628-6.953-3.553-10.17-3.553-10.17s-37.345-27.407-37.71-26.095l0,0    c-0.852-1.196-1.601-2.242-1.753-2.438c-0.388-0.5-10.362,9-11.412,9.795s-24.95,23.455-25.96,23.206    c-1.01-0.249-0.619,2.454,1.374,5.333c5.614,1.333,15.386-2.584,19.168-8.334c12.572-2.097,17.896-8.17,20.103-13.618    C396.64,192.281,409.486,207.036,432.09,208.667z"/>
		<path style="fill:#D4D4D4;" d="M351.994,211.297c0,0-4.498-3.455-7.307,1.847c-1.026,1.82-0.026,10.056,8.641,10.688    c0,0-10.667-6.851,0-8.729C351.994,211.297,351.994,211.297,351.994,211.297z"/>
		<path style="fill:#D4D4D4;" d="M428.335,215.103c0,0,5.355-8.051,10.924-1.929c1.068,2.123-1.462,8.351-7.862,10.378    c0,0,4.265-2.563,2.265-6.493S429.758,214.799,428.335,215.103z"/>
		<path style="fill:#191427;" d="M432.895,201.632c0.033-0.724,0.057-1.447,0.063-2.169c0.012-1.29-1.988-1.289-2,0    c-0.085,9.21-2.307,18.197-8.061,25.549c-7.468,9.541-19.696,14.11-31.272,15.493c-11.498-1.374-22.711-5.814-30.591-14.675    c-2.71-3.047-4.673-6.574-6.049-10.337c-0.007-0.08-0.033-0.162-0.08-0.251c-0.122-0.572-0.314-1.128-0.566-1.659    c-1.402-4.558-2.004-9.396-2.048-14.12c-0.012-1.289-2.012-1.29-2,0c0.007,0.755,0.033,1.506,0.069,2.255    c-8.4-0.28-12.141,7.775-10.885,15.435c1.738,10.609,12.004,13.997,21.293,11.389c7.73,8.252,19.253,11.782,30.227,13.171    c0.155,0.074,0.355,0.116,0.629,0.084c0.272,0.033,0.473-0.01,0.629-0.084c11.223-1.421,22.151-5.002,30.162-13.188    c9.715,2.77,19.281-0.928,21.664-11.43C445.847,209.307,441.51,200.971,432.895,201.632z M355.924,221.952    c-2.662,0.028-6.484-0.814-6.525-3.801c-0.022-1.651,1.858-3.126,3.503-2.814C353.703,217.618,354.704,219.83,355.924,221.952z     M341.547,217.311c-1.675-6.636,1.721-13.809,8.946-13.585c0.19,2.266,0.518,4.5,1.007,6.688c-0.201-0.12-0.405-0.237-0.618-0.335    c-2.592-1.186-5.037,0.301-6.631,2.344c-0.783,1.004-0.356,1.737,0.435,0.721l0.772-1.014c1.273-1.632,3.076-1.109,5.094,0.021    c0.754,0.422,1.42,1.095,1.914,1.858c0.002,0.007,0.004,0.014,0.006,0.021c-2.264-0.165-4.197,1.944-4.441,4.431    c-0.174,1.75,0.742,3.315,2.103,4.333c1.926,1.442,4.667,1.376,6.983,1.081c0.57,0.866,1.17,1.719,1.82,2.55    c0.119,0.152,0.25,0.29,0.371,0.439C351.333,228.759,343.744,226.012,341.547,217.311z M430.01,216.475    c0.012-0.03,0.034-0.047,0.044-0.08c0.048-0.155,0.118-0.304,0.175-0.457c1.505-0.524,3.033,0.974,3.147,2.712    c0.185,2.878-3.457,3.41-5.963,3.328C428.432,220.22,429.295,218.378,430.01,216.475z M441.995,217.256    c-1.992,8.785-10.207,11.435-18.047,9.608c0.822-0.956,1.58-1.951,2.275-2.983c3.693,0.378,9.221-0.252,8.909-5.09    c-0.157-2.43-2.083-4.288-4.236-4.286c0.483-0.832,1.091-1.588,1.874-2.166c1.893-1.396,3.973-1.096,5.188,0.456    c0.794,1.015,1.825,0.629,1.04-0.374c-1.563-1.996-3.99-3.512-6.516-2.219c-0.26,0.133-0.508,0.285-0.747,0.446    c0.511-2.307,0.844-4.658,1.032-7.013C440.668,202.961,443.53,210.49,441.995,217.256z"/>
		<path style="fill:#191427;" d="M392.854,205.853l1.276,9.869c0.144,1.113-0.759,2.119-2.017,2.246    c-1.257,0.128-2.393-0.671-2.537-1.785c-0.02-0.153-0.018-0.314,0-0.461l1.277-9.869c0.063-0.489,0.562-0.84,1.114-0.784    C392.442,205.117,392.801,205.45,392.854,205.853z"/>
		<path style="fill:#D4D4D4;" d="M380.228,222.891c0,0,9.099,7.927,23.933,0C404.161,222.891,391.794,233.984,380.228,222.891z"/>
		<path style="fill:#191427;" d="M379.447,222.064c0,0,0.065,0.075,0.184,0.216c0.131,0.142,0.325,0.357,0.598,0.611    c0.541,0.51,1.37,1.208,2.477,1.894c0.553,0.342,1.168,0.69,1.848,1.004c0.679,0.312,1.411,0.613,2.195,0.851    c0.783,0.233,1.605,0.443,2.459,0.569c0.428,0.047,0.858,0.095,1.292,0.144l1.31,0.051l1.318-0.076    c0.439-0.035,0.858-0.114,1.283-0.168c0.426-0.04,0.84-0.169,1.249-0.264c0.411-0.093,0.813-0.201,1.198-0.344    c0.387-0.137,0.774-0.245,1.137-0.399c0.359-0.163,0.71-0.322,1.052-0.477c0.691-0.287,1.282-0.696,1.852-1.007    c0.56-0.334,1.033-0.709,1.466-1.01c0.439-0.29,0.771-0.624,1.063-0.866c0.564-0.506,0.887-0.795,0.887-0.795l0.049-0.043    c0.414-0.373,1.053-0.337,1.426,0.078c0.372,0.415,0.338,1.054-0.078,1.426c-0.059,0.052-0.125,0.099-0.191,0.135    c0,0-0.405,0.221-1.115,0.608c-0.355,0.19-0.764,0.452-1.273,0.687c-0.508,0.238-1.058,0.538-1.682,0.817    c-0.643,0.246-1.3,0.582-2.045,0.825c-0.369,0.126-0.748,0.257-1.135,0.39c-0.395,0.109-0.797,0.221-1.206,0.335    c-0.406,0.124-0.828,0.212-1.26,0.285c-0.432,0.07-0.856,0.183-1.306,0.223c-0.443,0.048-0.896,0.122-1.34,0.148l-1.343,0.052    l-1.353-0.027c-0.448-0.041-0.895-0.082-1.337-0.123c-0.881-0.125-1.748-0.26-2.573-0.466c-0.821-0.212-1.612-0.441-2.352-0.7    c-0.733-0.27-1.422-0.546-2.05-0.826c-1.25-0.57-2.259-1.136-2.957-1.564c-0.346-0.219-0.627-0.39-0.813-0.519    c-0.191-0.136-0.293-0.208-0.293-0.208c-0.454-0.323-0.561-0.952-0.238-1.406c0.323-0.454,0.953-0.559,1.406-0.237    c0.068,0.048,0.127,0.103,0.18,0.162L379.447,222.064z"/>
		<g>
			<g>
				<path style="fill:#191427;" d="M413.71,196.232c-2.565-0.805-5.216-0.93-7.766,0c-0.601,0.219-0.342,1.186,0.266,0.964      c2.398-0.875,4.822-0.756,7.234,0C414.061,197.389,414.323,196.423,413.71,196.232L413.71,196.232z"/>
			</g>
		</g>
		<g>
			<g>
				<path style="fill:#191427;" d="M394.46,230.732c-1.616-0.266-3.242-0.499-4.883-0.518c-0.646-0.007-0.645,0.993,0,1      c1.553,0.018,3.087,0.23,4.617,0.482C394.825,231.799,395.094,230.836,394.46,230.732L394.46,230.732z"/>
			</g>
		</g>
		<g>
			<path style="fill:#191427;" d="M398.827,248.338c-0.23-2.496-0.249-4.996-0.25-7.5c0-1.289-2-1.289-2,0     c0.001,2.47,0.41,7.223,0.359,7.359c-1.4,3.824-10.511,4.509-12.421,0.849c-0.103-0.196,0.336-5.759,0.563-8.655     c0.1-1.287-1.9-1.277-2,0c-0.227,2.896-0.275,5.801-0.5,8.697c3.25,7.031,13.994,5.391,15.964,0.016     c0.003-0.008,0-0.015,0.004-0.023C398.737,248.922,398.858,248.679,398.827,248.338z"/>
			<path style="fill:#191427;" d="M428.794,265.235c-3.542-7.458-23.437-14.652-29.968-16.896c-1.224-0.42-2.022,1.396-0.811,1.813     c4.181,1.437,16.007,6.002,19.838,8.198c3.616,2.073,9.102,5.391,9.837,9.959c-5.036,0.607-10.468,0.069-15.481,0.028     c-6.723-0.056-37.393-0.172-44.149-0.191c-5.031-0.015-10.439,0.408-15.482-0.23c0.736-4.564,6.254-7.656,9.838-9.736     c3.786-2.196,16.652-7.426,20.791-8.84c1.213-0.414,0.594-2.168-0.629-1.75c-6.227,2.127-26.556,9.549-30.625,16.395     c-0.064,0.181-1.477,4.233-0.891,5.735c5.094,0.801,10.549,0.395,15.684,0.421c7.6,0.038,15.2,0.005,22.8-0.04     c7.994,0.063,15.986,0.181,23.979,0.247c4.891,0.041,10.11,0.495,15-0.146C429.565,268.891,428.805,265.288,428.794,265.235z"/>
		</g>
		<path style="fill:#FFB8A1;" d="M401.4,213.725c0-2.997,4.626-5.428,10.333-5.428c5.707,0,10.333,2.43,10.333,5.428    c0,2.998-4.626,5.427-10.333,5.427C406.026,219.152,401.4,216.722,401.4,213.725"/>
		<path style="fill:#FFB8A1;" d="M382.578,213.725c0,2.998-4.627,5.427-10.334,5.427s-10.332-2.43-10.332-5.427    c0-2.997,4.625-5.428,10.332-5.428S382.578,210.727,382.578,213.725z"/>
		<g>
			<path style="fill:#191427;" d="M381.185,199.767c-5.074-3.514-12.219-1.709-16.574,2.442h-5.49l2.686,4.427     c0.128,0.401,0.577,0.424,0.957-0.298c1.308-2.481,3.901-4.476,6.85-5.572c-0.477,6.494,1.674,9.681,4.734,9.197     c2.553-0.403,2.324-7.281,2.14-9.936c1.323,0.233,2.583,0.701,3.688,1.466C381.239,202.23,382.238,200.496,381.185,199.767z"/>
			<path style="fill:#191427;" d="M424.608,202.21h-5.504l0.008,0.014c-4.354-4.162-11.509-5.975-16.589-2.456     c-1.052,0.729-0.054,2.463,1.01,1.727c1.106-0.766,2.365-1.233,3.688-1.466c-0.185,2.655-0.413,9.533,2.14,9.936     c3.06,0.483,5.211-2.703,4.735-9.197c2.947,1.096,5.541,3.091,6.848,5.572c0.343,0.65,0.735,0.686,0.905,0.396l0.007,0.011     L424.608,202.21z"/>
		</g>
		<g>
			<path style="fill:#191427;" d="M428.291,228.417c0.029-0.107,0.044-0.165,0.044-0.165l-6.395-0.455     c-11.721,10.737-23.898,12.179-23.898,12.179l-0.422,8.762c0,0,4.794,1.671,7.887,2.178c-0.847,0.368-1.346,0.544-1.346,0.544     l3.351,0.839c18.965-9.164,21.56-24.047,21.56-24.047L428.291,228.417z"/>
			<path style="fill:#191427;" d="M384.036,239.116c0,0-14.73-0.982-22.523-11.319c0,0-5.765,1.534-9.814,0.66     c0.002-0.128,0.005-0.205,0.005-0.205h-2.138c0.449,10.431,1.979,18.612,4.034,25.045c-2.648-2.313-6.201-8.568-5.036-25.476     c0.067-1.591-0.904,0.144-0.904,0.144s-3.367,15.991,4.26,25.412c1.14,1.407,2.112,2.563,2.95,3.517     c6.564,16.865,16.732,19.406,16.732,19.406c-3.556-3.669-2.773-11.336-2.773-11.336c3.417,5.578,10.202,8.563,10.202,8.563     c-7.579-20,4.177-25.438,4.177-25.438s0-1.489,0.829-5.125c-0.15,0.103-0.286,0.21-0.433,0.314     C384.734,239.98,384.036,239.116,384.036,239.116z"/>
		</g>
		<path style="fill:#191427;" d="M426.549,165.906c-0.144-0.169-0.275-0.337-0.422-0.505c-1.63-1.872-3.277-3.471-4.921-4.856    c-0.03-0.037-0.031-0.038-0.031-0.038l0.012,0.021c-13.896-11.694-27.608-7.212-29.693-6.426    c-2.334-0.879-19.22-6.403-34.635,11.299c-16.601,19.062-10.38,36.858-10.38,36.858l3.969,1.467l1.198,3.19    c0,0,8.554-0.495,19.55-8.355c18.169-3.08,20.59-16.151,20.798-21.518c18.463,28.675,39.347,29.873,39.347,29.873l1.198-3.19    l3.969-1.467c0,0,4.41-12.623-4.114-27.995c0.189,0.232,0.373,0.459,0.569,0.699c11.787,14.456,4.687,27.612,4.687,27.612    l1.4,0.389C447.065,187.424,433.929,172.582,426.549,165.906z M375.01,195.599c4.966-4.163,10.255-9.858,15.382-17.635    C389.003,189.324,379.741,193.96,375.01,195.599z"/>
		<path style="fill:#191427;" d="M411.733,269.489c0,0,0.197-12.086,0-15.721c-1.11,1.245-2.249,0-2.249,0s0.458,11.622-0.49,14.992    "/>
		<path style="fill:#191427;" d="M366.737,269.489c0,0-0.197-12.086,0-15.721c1.11,1.245,2.249,0,2.249,0s-0.458,11.622,0.49,14.992    "/>
		<path style="fill:#191427;" d="M400.379,254.463c0,0-4.001,5.098-13.334,4.965C387.045,259.428,395.713,263.463,400.379,254.463z"/>
		<path style="fill:#191427;" d="M380.228,254.463c0,0-0.052,6.334,11.967,8.5C392.195,262.963,379.077,264.129,380.228,254.463z"/>
	</g>
</svg>