<svg xmlns="http://www.w3.org/2000/svg" xmlns:xlink="http://www.w3.org/1999/xlink" version="1.1" x="100px" y="100px" viewBox="0 100 220 200" style="enable-background:new 0 0 299.999 500;" xml:space="preserve">
<g id="BACKGROUND">
	<rect style="opacity:0.8;fill:#D1E8E3;" width="500" height="500"/>
</g>
<g xmlns="http://www.w3.org/2000/svg" id="_x30_1">
		<path style="fill:#FFFFFF;" d="M106.055,240.527v9.061c0,0,1.667,5.75,10.292,2c3-2,3.293-3.543,3.293-3.543l-0.788-7.872    C118.852,240.173,114.23,242.893,106.055,240.527z"/>
		<path style="fill:#D4D4D4;" d="M106.055,242.963c0,0,5.753,4.625,13.585,0c-0.168-2.5-0.788-2.79-0.788-2.79    s-6.643,1.497-13.574-0.294C104.982,242.104,106.055,242.963,106.055,242.963z"/>
		<path style="fill:#191427;" d="M124.732,250.814c0,0-8.886,5.602-17.011,3.126c-8.125-2.477-9.122-2.412-9.122-2.412    s-23.253,5.436-24.878,17.311h42.443c0,0,33.523,1.422,34.189,0.75c0.665-0.672-0.507-3.625-0.632-4.125s-1.99-4.283-7.625-6.625    C136.462,256.497,124.732,250.814,124.732,250.814z"/>
		<path style="fill:#009D96;" d="M120.776,247.463c0,0-1.218,4.461-8.07,5.811c0.088-0.258,0.14-0.416,0.14-0.416    s-6.792,2.355-8.253-5.395l-6.452,4.375c0,0,1.706,7.25,10.331,11.125c1.531-2.342,3.122-6.543,3.895-8.715    c2.028,3.242,5.105,8.715,5.105,8.715s8.812-6.25,10.593-11.375C125.721,250.088,120.776,247.463,120.776,247.463z"/>
		<path style="fill:#FFFFFF;" d="M65.846,204.797c0,0-8.034,9.049-0.35,18.774s17.35,3.394,17.35,3.394s10.429,14.081,30.798,13.54    c0,0,14.761,1.126,30.315-12.708c4.221,0.5,16.387,2.302,19.887-7.099s1.882-18.109-10.431-18.309    c0.554-7.296-8.236-35.426-34.569-36.926s-47.833,24.501-44.333,41.667C69.18,205.797,70.18,204.13,65.846,204.797z"/>
		<path style="fill:#D4D4D4;" d="M98.141,187.894c0,0-7.307,7.464-12.407,15.243c-4.147,6.326-4.554,13.995-3.221,15.077    c0,0-6.305-1.065-7.166-2.635c0.833-0.95,1.666-5.568,1.666-5.568l2.334-7.047c0,0,5.666-11.335,6.666-11.335    s6.205-3.076,7.706-3.736C95.22,187.234,98.141,187.894,98.141,187.894z"/>
		<path style="fill:#D4D4D4;" d="M129.729,177.722c0.969-0.714-1.746,15.075-18.147,22.908c-4.235,1.5-9.402,4.5-9.402,4.5    s-2.622-2.547-2.674-5.251S129.729,177.722,129.729,177.722z"/>
		<path style="fill:#D4D4D4;" d="M74.013,211.297c0,0-4.498-3.455-7.306,1.847c-1.027,1.82-0.027,10.056,8.64,10.688    c0,0-10.667-6.851,0-8.729C74.013,211.297,74.013,211.297,74.013,211.297z"/>
		<path style="fill:#D4D4D4;" d="M150.354,215.103c0,0,5.355-8.051,10.924-1.929c1.069,2.123-1.462,8.351-7.862,10.378    c0,0,4.265-2.563,2.265-6.493S151.777,214.799,150.354,215.103z"/>
		<path style="fill:#191427;" d="M154.915,201.632c0.033-0.724,0.056-1.447,0.063-2.169c0.012-1.29-1.988-1.289-2,0    c-0.085,9.21-2.307,18.197-8.061,25.549c-7.468,9.541-19.696,14.11-31.273,15.493c-11.498-1.374-22.711-5.814-30.59-14.675    c-2.71-3.047-4.673-6.574-6.048-10.337c-0.007-0.08-0.034-0.162-0.08-0.251c-0.123-0.572-0.314-1.128-0.566-1.659    c-1.402-4.558-2.005-9.396-2.048-14.12c-0.012-1.289-2.012-1.29-2,0c0.007,0.755,0.033,1.506,0.069,2.255    c-8.399-0.28-12.14,7.775-10.885,15.435c1.739,10.609,12.004,13.997,21.293,11.389c7.731,8.252,19.254,11.782,30.228,13.171    c0.156,0.074,0.356,0.116,0.629,0.084c0.272,0.033,0.473-0.01,0.629-0.084c11.224-1.421,22.152-5.002,30.163-13.188    c9.715,2.77,19.282-0.928,21.664-11.43C167.866,209.307,163.53,200.971,154.915,201.632z M77.943,221.952    c-2.662,0.028-6.484-0.814-6.525-3.801c-0.022-1.651,1.858-3.126,3.503-2.814C75.722,217.618,76.723,219.83,77.943,221.952z     M63.566,217.311c-1.675-6.636,1.721-13.809,8.946-13.585c0.19,2.266,0.518,4.5,1.007,6.688c-0.201-0.12-0.405-0.237-0.619-0.335    c-2.591-1.186-5.037,0.301-6.63,2.344c-0.783,1.004-0.356,1.737,0.436,0.721l0.771-1.014c1.273-1.632,3.076-1.109,5.094,0.021    c0.754,0.422,1.42,1.095,1.914,1.858c0.002,0.007,0.005,0.014,0.007,0.021c-2.265-0.165-4.197,1.944-4.442,4.431    c-0.173,1.75,0.743,3.315,2.103,4.333c1.926,1.442,4.667,1.376,6.984,1.081c0.569,0.866,1.17,1.719,1.82,2.55    c0.119,0.152,0.25,0.29,0.371,0.439C73.353,228.759,65.763,226.012,63.566,217.311z M152.03,216.475    c0.012-0.03,0.034-0.047,0.043-0.08c0.048-0.155,0.118-0.304,0.174-0.457c1.505-0.524,3.034,0.974,3.146,2.712    c0.185,2.878-3.456,3.41-5.963,3.328C150.452,220.22,151.315,218.378,152.03,216.475z M164.014,217.256    c-1.992,8.785-10.207,11.435-18.047,9.608c0.823-0.956,1.581-1.951,2.276-2.983c3.693,0.378,9.221-0.252,8.909-5.09    c-0.157-2.43-2.083-4.288-4.236-4.286c0.483-0.832,1.091-1.588,1.874-2.166c1.892-1.396,3.973-1.096,5.188,0.456    c0.794,1.015,1.825,0.629,1.04-0.374c-1.562-1.996-3.99-3.512-6.515-2.219c-0.261,0.133-0.509,0.285-0.748,0.446    c0.511-2.307,0.844-4.658,1.033-7.013C162.687,202.961,165.548,210.49,164.014,217.256z"/>
		<g>
			<path style="fill:#191427;" d="M143.743,205.626c-3.359-6.376-12.887-10.231-19.201-5.858c-1.052,0.729-0.054,2.463,1.01,1.727     c1.106-0.766,2.365-1.233,3.688-1.466c-0.185,2.655-0.413,9.533,2.14,9.936c3.061,0.483,5.211-2.703,4.735-9.197     c2.948,1.096,5.542,3.091,6.849,5.572C143.564,207.48,144.344,206.766,143.743,205.626z"/>
			<path style="fill:#191427;" d="M84.003,205.626c3.359-6.376,12.887-10.231,19.201-5.858c1.052,0.729,0.054,2.463-1.01,1.727     c-1.106-0.766-2.365-1.233-3.688-1.466c0.185,2.655,0.413,9.533-2.14,9.936c-3.061,0.483-5.211-2.703-4.735-9.197     c-2.948,1.096-5.541,3.091-6.849,5.572C84.182,207.48,83.402,206.766,84.003,205.626z"/>
		</g>
		<g>
			<path style="fill:#FFB8A1;" d="M155.346,203.963c0,0,6.712-10.322,2.193-22.206c-4.519-11.884-11.61-22.877-23.277-18.794     c-1.083-2.75-5.917-13.125-24.541-12.875s-39.875,11.75-45.625,35.125s12.125,30.25,14.625,29.875c-0.966-3.169,1.5-8.75,3.5-11     s8.375-11.75,16.542-19.461c0,0-3.167,11.961,2.083,16.961c2.5-0.875,7.125-2.5,12-5s9.25-8.875,17.5-20.375     c0,0,2.875,7.25,8.875,11.25S155.221,198.713,155.346,203.963z"/>
			<path style="fill:#EF998E;" d="M112.846,196.588c4.875-2.5,9.25-8.875,17.5-20.375c0,0,0.12,0.299,0.352,0.794     c-0.018-1.662-0.034-2.808-0.034-2.808c0.198,0.524-18.629,21.115-31.21,22.976c0.04,1.04,0.048,1.93,0.051,2.704     c0.371,0.627,0.811,1.205,1.34,1.709C103.346,200.713,107.971,199.088,112.846,196.588z"/>
			<path style="fill:#EF998E;" d="M155.825,203.137c1.45-2.666,5.479-11.478,1.714-21.38c-2.144-5.638-4.868-11.071-8.383-14.793     c-0.494-0.018-0.976,0.001-1.43,0.102c0,0,10.456,10.585,5.663,30.866C154.383,200.996,155.23,202.447,155.825,203.137z"/>
			<path style="fill:#EF998E;" d="M100.197,183.219c0,0-31.711,27.855-37.192,9.374c-0.756,17.463,13.503,22.827,15.717,22.495     c-0.966-3.169,1.5-8.75,3.5-11s8.375-11.75,16.542-19.461c0,0-0.124,0.471-0.282,1.257     C99.022,184.98,99.589,184.089,100.197,183.219z"/>
			<path style="fill:#191427;" d="M155.616,174.052c-3.869-7.525-11.672-14.816-20.584-12.755     c-4.496-8.951-17.362-12.463-26.516-12.406c-13.148,0.083-25.932,6.258-34.758,15.841c-7.471,8.11-12.181,19.556-11.357,30.635     c0.351,4.712,2.105,9.561,5.042,13.28c1.422,1.8,3.652,4.238,6.099,6.101l0,0c0,0,2.965,2.014,6.26,0.865     c-0.013-0.009-0.026-0.018-0.039-0.027C78.82,204,90.089,196.567,97.183,188.17c-0.851,4.836,0.014,10.392,2.467,14.131     c0.119,0.182,0.269,0.299,0.43,0.372c0.278,0.355,0.755,0.571,1.272,0.32c6.137-2.98,12.423-5.189,17.602-9.781     c4.457-3.952,8.285-9.833,10.776-15.49c1.965,4.711,6.063,8.186,10.098,11.28c5.871,4.503,14.808,9.627,14.353,18.121     c-0.005,0.065,0.019,0.115,0.025,0.175c2.967-2.993,4.077-7.217,4.406-8.761C160.237,190.273,159.75,182.092,155.616,174.052z      M155.64,202.402c-3.435-11.675-21.899-15.249-24.777-27.677c0.002-0.21-0.073-0.384-0.198-0.524c0,0-4.857,8.1-8.674,12.528     c-0.002-0.005-0.003-0.011-0.004-0.017c-1.402,1.827-2.896,3.55-4.447,5.086c-4.485,4.442-10.786,6.463-16.405,9.094     c-2.83-4.637-3.767-11.939-1.091-16.59c0.057-0.099,0.096-0.199,0.128-0.3c0.03-0.09,0.049-0.176,0.058-0.262     c0.006-0.049,0.01-0.097,0.011-0.145c-0.001-0.037,0.004-0.074,0-0.109c-0.005-0.093-0.021-0.182-0.043-0.267     c-1.927,1.892-5.949,5.847-6.457,6.379c0,0,0,0,0,0c-7.188,7.603-16.624,14.166-16.039,24.865     c-3.729-0.251-7.468-5.32-9.36-7.972c-2.786-3.906-3.901-8.698-4.064-13.418c-0.36-10.382,5.077-20.611,11.927-28.048     c7.883-8.558,19.42-13.285,30.882-14.081c9.044-0.628,22.534,2.893,26.564,12.024c0.213,0.482,0.625,0.584,1.005,0.47     c0.042-0.007,0.079,0.003,0.124-0.01c9.015-2.628,15.993,5.569,19.692,12.764C158.789,184.59,158.122,193.701,155.64,202.402z"/>
		</g>
		<path style="fill:#191427;" d="M114.873,205.853l1.277,9.869c0.144,1.113-0.759,2.119-2.016,2.246    c-1.257,0.128-2.393-0.671-2.538-1.785c-0.02-0.153-0.018-0.314,0-0.461l1.277-9.869c0.063-0.489,0.562-0.84,1.115-0.784    C114.461,205.117,114.821,205.45,114.873,205.853z"/>
		<path style="fill:#D4D4D4;" d="M102.247,222.891c0,0,9.1,7.927,23.933,0C126.18,222.891,113.813,233.984,102.247,222.891z"/>
		<path style="fill:#191427;" d="M101.465,222.064c0,0,0.064,0.075,0.185,0.216c0.131,0.142,0.325,0.357,0.597,0.611    c0.541,0.51,1.371,1.208,2.477,1.894c0.553,0.342,1.168,0.69,1.848,1.004c0.679,0.312,1.412,0.613,2.195,0.851    c0.784,0.233,1.606,0.443,2.459,0.569c0.428,0.047,0.859,0.095,1.292,0.144l1.311,0.051l1.319-0.076    c0.438-0.035,0.858-0.114,1.283-0.168c0.425-0.04,0.839-0.169,1.248-0.264c0.412-0.093,0.813-0.201,1.198-0.344    c0.386-0.137,0.774-0.245,1.137-0.399c0.359-0.163,0.709-0.322,1.051-0.477c0.691-0.287,1.282-0.696,1.851-1.007    c0.559-0.334,1.033-0.709,1.465-1.01c0.44-0.29,0.771-0.624,1.063-0.866c0.564-0.506,0.887-0.795,0.887-0.795l0.048-0.043    c0.415-0.373,1.054-0.337,1.426,0.078c0.372,0.415,0.337,1.054-0.078,1.426c-0.058,0.052-0.125,0.099-0.191,0.135    c0,0-0.406,0.221-1.116,0.608c-0.355,0.19-0.763,0.452-1.273,0.687c-0.507,0.238-1.058,0.538-1.682,0.817    c-0.642,0.246-1.299,0.582-2.044,0.825c-0.369,0.126-0.748,0.257-1.135,0.39c-0.394,0.109-0.796,0.221-1.206,0.335    c-0.406,0.124-0.828,0.212-1.26,0.285c-0.432,0.07-0.856,0.183-1.305,0.223c-0.444,0.048-0.896,0.122-1.34,0.148l-1.343,0.052    l-1.353-0.027c-0.448-0.041-0.894-0.082-1.337-0.123c-0.88-0.125-1.747-0.26-2.573-0.466c-0.822-0.212-1.613-0.441-2.352-0.7    c-0.733-0.27-1.422-0.546-2.05-0.826c-1.25-0.57-2.259-1.136-2.958-1.564c-0.346-0.219-0.626-0.39-0.813-0.519    c-0.191-0.136-0.293-0.208-0.293-0.208c-0.454-0.323-0.56-0.952-0.237-1.406c0.323-0.454,0.953-0.559,1.406-0.237    c0.067,0.048,0.127,0.103,0.179,0.162L101.465,222.064z"/>
		<g>
			<g>
				<path style="fill:#191427;" d="M135.729,196.232c-2.565-0.805-5.216-0.93-7.766,0c-0.601,0.219-0.341,1.186,0.266,0.964      c2.399-0.875,4.822-0.756,7.234,0C136.081,197.389,136.342,196.423,135.729,196.232L135.729,196.232z"/>
			</g>
		</g>
		<g>
			<g>
				<path style="fill:#191427;" d="M98.479,195.982c-2.656-0.785-5.474-0.218-7.885,1.05c-0.571,0.3-0.065,1.163,0.505,0.863      c2.178-1.145,4.715-1.658,7.115-0.95C98.833,197.128,99.096,196.164,98.479,195.982L98.479,195.982z"/>
			</g>
		</g>
		<g>
			<g>
				<path style="fill:#191427;" d="M116.479,230.732c-1.617-0.266-3.242-0.499-4.883-0.518c-0.645-0.007-0.645,0.993,0,1      c1.553,0.018,3.087,0.23,4.617,0.482C116.844,231.799,117.114,230.836,116.479,230.732L116.479,230.732z"/>
			</g>
		</g>
		<path style="fill:#191427;" d="M120.846,248.338c-0.231-2.496-0.25-4.996-0.25-7.5c-0.001-1.289-2.001-1.289-2,0    c0,2.47,0.409,7.223,0.359,7.359c-1.401,3.824-10.511,4.509-12.422,0.849c-0.102-0.196,0.337-5.759,0.563-8.655    c0.1-1.287-1.9-1.277-2,0c-0.226,2.896-0.274,5.801-0.5,8.697c3.25,7.031,13.995,5.391,15.964,0.016    c0.003-0.008,0.001-0.015,0.003-0.023C120.756,248.922,120.877,248.679,120.846,248.338z"/>
		<path style="fill:#191427;" d="M129.101,250.725c-2.506-1.654-5.82-2.035-8.048-4.094c-0.945-0.874-2.363,0.537-1.414,1.414    c2.135,1.974,5.046,2.532,7.548,3.876c-0.796,2.269-2.844,4.105-4.548,5.679c-1.67,1.543-3.479,2.96-5.362,4.242    c-1.475-2.581-2.621-5.602-3.433-8.408c-0.003-0.02-0.012-0.035-0.016-0.054c-0.005-0.019-0.012-0.038-0.017-0.058    c-0.004-0.015-0.014-0.021-0.019-0.036c-0.034-0.101-0.077-0.194-0.142-0.274c-0.054-0.076-0.118-0.133-0.187-0.186    c-0.008-0.006-0.014-0.012-0.022-0.018c-0.099-0.07-0.205-0.12-0.321-0.147c-0.006-0.001-0.012-0.003-0.018-0.005    c-0.085-0.018-0.168-0.029-0.256-0.026c-0.088-0.003-0.171,0.009-0.256,0.026c-0.006,0.002-0.012,0.004-0.018,0.005    c-0.116,0.027-0.222,0.077-0.321,0.147c-0.008,0.006-0.014,0.012-0.022,0.018c-0.069,0.053-0.132,0.109-0.186,0.186    c-0.065,0.08-0.108,0.174-0.142,0.274c-0.005,0.015-0.015,0.021-0.019,0.036c-0.005,0.02-0.012,0.039-0.017,0.058    c-0.004,0.019-0.014,0.034-0.016,0.054c-0.812,2.806-1.958,5.826-3.432,8.407c-1.711-1.174-3.341-2.464-4.904-3.829    c-1.863-1.628-4.155-3.656-5.005-6.092c2.501-1.344,5.412-1.902,7.546-3.875c0.949-0.877-0.469-2.288-1.414-1.414    c-2.228,2.059-5.542,2.439-8.048,4.094c-0.688,0.454-0.52,1.327-0.027,1.708c0.803,2.439,2.816,4.442,4.621,6.162    c2.182,2.079,4.624,3.97,7.156,5.606c0.707,0.457,1.374-0.117,1.46-0.766c1.21-1.988,2.228-4.294,3.045-6.59    c0.818,2.296,1.836,4.602,3.045,6.59c0.086,0.648,0.753,1.223,1.46,0.766c2.372-1.533,4.602-3.303,6.702-5.188    c1.973-1.77,4.214-3.969,5.072-6.579C129.62,252.055,129.79,251.18,129.101,250.725z"/>
		<path style="fill:#191427;" d="M150.813,265.235c-3.542-7.458-15.889-12.116-22.42-14.361c-1.223-0.42-1.744,1.512-0.531,1.929    c4.18,1.436,8.18,3.35,12.011,5.546c3.616,2.073,9.102,5.391,9.837,9.959c-5.036,0.607-10.468,0.069-15.481,0.028    c-6.723-0.056-37.393-0.172-44.149-0.191c-5.031-0.015-10.438,0.408-15.482-0.23c0.736-4.564,6.253-7.656,9.837-9.736    c3.786-2.196,7.873-3.962,12.011-5.375c1.213-0.415,0.692-2.347-0.531-1.929c-6.226,2.127-17.873,6.263-21.942,13.11    c-0.063,0.181-1.477,4.233-0.891,5.735c5.094,0.801,10.549,0.395,15.684,0.421c7.6,0.038,15.201,0.005,22.801-0.04    c7.993,0.063,15.986,0.181,23.979,0.247c4.891,0.041,10.11,0.495,15-0.146C151.583,268.891,150.825,265.288,150.813,265.235z"/>
		<path style="fill:#191427;" d="M76.887,215.103c-14.716-20.197,6.9-37.404,6.9-37.404c-17.726,17.735-5.44,37.099-5.44,37.099    L76.887,215.103z"/>
		<path style="fill:#191427;" d="M155.64,202.402c0,0,5.956-10.439-10.044-26.189c0,0,11.633,12.905,8.716,24.231    C154.788,203.637,155.64,202.402,155.64,202.402z"/>
	</g>
</svg>